<svg width="21" height="20" viewBox="0 0 21 20" fill="none" xmlns="http://www.w3.org/2000/svg">
<path fill-rule="evenodd" clip-rule="evenodd" d="M8.08572 16.4707C12.5021 16.4707 16.0823 12.7836 16.0823 8.23533C16.0823 3.68708 12.5021 0 8.08572 0C3.66932 0 0.0891113 3.68708 0.0891113 8.23533C0.0891113 12.7836 3.66932 16.4707 8.08572 16.4707ZM8.08554 14.4118C11.3978 14.4118 14.083 11.6465 14.083 8.2353C14.083 4.82412 11.3978 2.05881 8.08554 2.05881C4.77323 2.05881 2.08808 4.82412 2.08808 8.2353C2.08808 11.6465 4.77323 14.4118 8.08554 14.4118Z" fill="#757575"/>
<path fill-rule="evenodd" clip-rule="evenodd" d="M13.6057 13.1383C14.1308 12.5975 14.982 12.5975 15.5071 13.1383L19.3176 17.0625C19.8426 17.6032 19.8426 18.4799 19.3176 19.0206C18.7925 19.5614 17.9412 19.5614 17.4161 19.0206L13.6057 15.0964C13.0806 14.5557 13.0806 13.679 13.6057 13.1383Z" fill="#757575"/>
</svg>
